Patient4_TMGait_0pt6_01_right_45_GRF.mot
version=1
nRows=26
nColumns=19
inDegrees=no
endheader
time	F1x	F1y	F1z	M1x	M1y	M1z	F2x	F2y	F2z	M2x	M2y	M2z	EC1x	EC1y	EC1z	EC2x	EC2y	EC2z
54.11	16.6783	740.5447	78.29	-243.0629	-72.4282	756.5449	11.4169	-15.8398	2.5856	-3.949	-6.5481	-28.0963	-0.0592	0.0182	-0.0073	-0.0462	0.0165	0.9585
54.1224	14.4128	729.3708	73.0454	-240.2737	-67.8861	737.045	7.3233	-9.6406	1.9371	-2.2905	-4.4751	-17.5792	-0.0592	0.0182	-0.0073	-0.0462	0.0165	0.9585
54.1347	12.8814	719.1579	68.1614	-237.7266	-63.3516	718.7211	3.9689	-4.4156	1.2881	-0.86226	-2.6485	-8.7671	-0.0592	0.0182	-0.0073	-0.0462	0.0165	0.9585
54.1471	12.2489	711.2257	63.9184	-235.8168	-59.0412	703.2287	1.4891	-0.43185	0.72602	0.24847	-1.2075	-2.1033	-0.0592	0.0182	-0.0073	-0.0462	0.0165	0.9585
54.1594	12.4533	706.4744	60.4889	-234.8312	-55.1498	691.5553	-0.17701	2.3387	0.28598	1.0378	-0.17108	2.4768	-0.0592	0.0182	-0.0073	-0.0462	0.0165	0.9585
54.1718	13.4082	705.2756	57.8278	-234.9057	-51.6918	683.9671	-1.1595	4.0479	-0.031087	1.5385	0.50669	5.25	-0.0592	0.0182	-0.0073	-0.0462	0.0165	0.9585
54.1841	14.9372	707.4859	55.9064	-236.0069	-48.7194	680.1757	-1.6669	4.9268	-0.24474	1.8036	0.91359	6.6477	-0.0592	0.0182	-0.0073	-0.0462	0.0165	0.9585
54.1965	16.8557	712.5169	54.6012	-237.9568	-46.1955	679.446	-1.8359	5.1386	-0.37732	1.8684	1.1223	6.9886	-0.0592	0.0182	-0.0073	-0.0462	0.0165	0.9585
54.2089	18.9898	719.5029	53.856	-240.4728	-44.1369	680.8494	-1.8444	4.8416	-0.45519	1.7613	1.2147	6.5952	-0.0592	0.0182	-0.0073	-0.0462	0.0165	0.9585
54.2212	21.1795	727.4422	53.5768	-243.2231	-42.5197	683.3652	-1.743	4.073	-0.49689	1.4761	1.2304	5.5738	-0.0592	0.0182	-0.0073	-0.0462	0.0165	0.9585
54.2336	23.2892	735.3653	53.7291	-245.8785	-41.3609	686.0488	-1.6321	2.8614	-0.51681	1.0017	1.2131	4.0393	-0.0592	0.0182	-0.0073	-0.0462	0.0165	0.9585
54.2459	25.2606	742.4767	54.2535	-248.1664	-40.6302	688.1514	-1.4957	1.1541	-0.52429	0.30911	1.1709	1.9454	-0.0592	0.0182	-0.0073	-0.0462	0.0165	0.9585
54.2583	27.0875	748.2328	55.111	-249.8977	-40.2929	689.1637	-1.372	-1.0403	-0.51814	-0.60973	1.1077	-0.66371	-0.0592	0.0182	-0.0073	-0.0462	0.0165	0.9585
54.2706	28.8242	752.3544	56.2531	-250.9764	-40.2862	688.8144	-1.2042	-3.6843	-0.491	-1.7363	0.99734	-3.7569	-0.0592	0.0182	-0.0073	-0.0462	0.0165	0.9585
54.283	30.5709	754.8208	57.6348	-251.3944	-40.5295	687.0718	-0.97796	-6.5646	-0.42692	-2.9775	0.81218	-7.0845	-0.0592	0.0182	-0.0073	-0.0462	0.0165	0.9585
54.2954	32.4657	755.8192	59.2341	-251.2143	-40.9511	684.0784	-0.63063	-9.2501	-0.3126	-4.1369	0.51344	-10.1723	-0.0592	0.0182	-0.0073	-0.0462	0.0165	0.9585
54.3077	34.5988	755.6907	61.0214	-250.5496	-41.4777	680.1194	-0.11703	-10.9335	-0.129	-4.8567	0.061072	-12.1059	-0.0592	0.0182	-0.0073	-0.0462	0.0165	0.9585
54.3201	37.067	754.7925	62.9714	-249.5211	-42.0453	675.4977	0.6077	-10.3568	0.13615	-4.5833	-0.57215	-11.4675	-0.0592	0.0182	-0.0073	-0.0462	0.0165	0.9585
54.3324	39.8816	753.3799	65.0045	-248.2246	-42.5733	670.4606	1.573	-5.7522	0.49902	-2.543	-1.4019	-6.2681	-0.0592	0.0182	-0.0073	-0.0462	0.0165	0.9585
54.3448	43.0097	751.4675	67.0236	-246.6887	-42.993	665.0513	2.7312	5.1361	0.95106	2.2447	-2.3851	6.0494	-0.0592	0.0182	-0.0073	-0.0462	0.0165	0.9585
54.3571	46.3399	748.7547	68.8452	-244.8509	-43.1822	659.0717	3.9855	24.8302	1.4579	10.8785	-3.4171	28.3366	-0.0592	0.0182	-0.0073	-0.0462	0.0165	0.9585
54.3695	49.7395	744.5316	70.2499	-242.5244	-43.0057	651.9732	5.0629	55.7516	1.9361	24.4047	-4.2712	63.3627	-0.0592	0.0182	-0.0073	-0.0462	0.0165	0.9585
54.3819	52.9978	737.6643	70.9524	-239.3924	-42.2934	642.8466	5.5627	99.4207	2.2333	43.4764	-4.5831	112.8558	-0.0592	0.0182	-0.0073	-0.0462	0.0165	0.9585
54.3942	55.8839	726.5924	70.6674	-235.0054	-40.8915	630.4106	4.7388	155.4547	2.1222	67.9	-3.7776	176.4187	-0.0592	0.0182	-0.0073	-0.0462	0.0165	0.9585
54.4066	58.118	709.447	69.1227	-228.8124	-38.6741	613.1186	1.4272	220.1305	1.3532	96.0222	-1.0809	249.8286	-0.0592	0.0182	-0.0073	-0.0462	0.0165	0.9585
54.4189	59.3879	684.3084	66.1734	-220.2324	-35.6373	589.3741	-5.3365	285.6111	-0.58801	124.4113	4.4022	324.2003	-0.0592	0.0182	-0.0073	-0.0462	0.0165	0.9585
